PathFileType	4	(X/Y/Z)	C:\Users\Basilio\Documents\Thesis Gigler\squatting_fais\c3dfiles\044\SLS_front_pre1\markers_experimental.trc
DataRate	CameraRate	NumFrames	NumMarkers	Units	OrigDataRate	OrigDataStartFrame	OrigNumFrames
200.000000	200.000000	4	60	mm	200.000000	1177	1570
Frame#	Time	FHD			LBHD			RBHD			C7			T10			CLAV			LSHO			LUUPA			LMUPA			LDUPA			LLEP			LMEP			LUL			LRFIN			RSHO			RUPA1			RMUPA			RDUPA			RLEP			RMEP			RUL			RUFIN			LASI			RASI			USACR			LSACR			LTHI1			LTHI2			LTHI3			LTHI4			LLFC			LMFC			LTIB1			LTIB2			LTIB3			LTIB4			LLMAL			LMMAL			LHEE			LMT1			LMT2			LMT5			RTHI			RTHI2			RTHI3			RTHI4			RLFC			RMFC			RTIB1			RTIB2			RTIB3			RTIB4			RLMAL			RHEE			RMT1			RMT2			RMT5			RMMAL			RSACR			LRAD			
		X1	Y1	Z1	X2	Y2	Z2	X3	Y3	Z3	X4	Y4	Z4	X5	Y5	Z5	X6	Y6	Z6	X7	Y7	Z7	X8	Y8	Z8	X9	Y9	Z9	X10	Y10	Z10	X11	Y11	Z11	X12	Y12	Z12	X13	Y13	Z13	X14	Y14	Z14	X15	Y15	Z15	X16	Y16	Z16	X17	Y17	Z17	X18	Y18	Z18	X19	Y19	Z19	X20	Y20	Z20	X21	Y21	Z21	X22	Y22	Z22	X23	Y23	Z23	X24	Y24	Z24	X25	Y25	Z25	X26	Y26	Z26	X27	Y27	Z27	X28	Y28	Z28	X29	Y29	Z29	X30	Y30	Z30	X31	Y31	Z31	X32	Y32	Z32	X33	Y33	Z33	X34	Y34	Z34	X35	Y35	Z35	X36	Y36	Z36	X37	Y37	Z37	X38	Y38	Z38	X39	Y39	Z39	X40	Y40	Z40	X41	Y41	Z41	X42	Y42	Z42	X43	Y43	Z43	X44	Y44	Z44	X45	Y45	Z45	X46	Y46	Z46	X47	Y47	Z47	X48	Y48	Z48	X49	Y49	Z49	X50	Y50	Z50	X51	Y51	Z51	X52	Y52	Z52	X53	Y53	Z53	X54	Y54	Z54	X55	Y55	Z55	X56	Y56	Z56	X57	Y57	Z57	X58	Y58	Z58	X59	Y59	Z59	X60	Y60	Z60	

1178	5.885	-191.6419525146485	1779.718627929688	-1045.141845703125	-323.1614074707032	1740.805419921875	-1121.6728515625	-367.7141418457032	1730.183959960938	-961.7624511718752	-392.6780395507814	1567.2275390625	-1042.237060546875	-452.3647460937501	1272.851928710938	-1007.422790527344	-259.4999389648438	1510.54736328125	-1033.577392578125	-291.1419982910157	1562.300170898438	-1185.487670898438	-132.8694305419922	1489.525756835938	-1271.301391601563	-103.4314117431641	1501.123779296875	-1231.594604492188	-65.72743225097658	1471.268310546875	-1269.435791015625	-10.01531028747559	1459.089599609375	-1254.894409179688	-36.46252441406251	1387.587158203125	-1233.518432617188	nan	nan	nan	238.4989318847657	1457.290893554688	-1014.405151367188	-311.3813781738282	1570.242553710938	-879.2698364257815	-170.1544494628907	1518.509765625	-768.2521972656252	-135.8746185302735	1526.031494140625	-804.421325683594	-102.3919754028321	1505.136108398438	-760.0200805664064	-40.88235473632813	1496.118530273438	-766.1181640625001	-58.32395935058595	1416.046142578125	-774.3323364257815	214.0923309326172	1453.526000976563	-877.3145751953127	nan	nan	nan	-296.3176574707032	1053.434936523438	-1080.928100585938	-309.8381958007813	1054.1162109375	-866.5393066406252	-468.6145019531251	1115.78369140625	-983.8147583007815	-473.1123352050782	1082.006958007813	-1008.302856445313	-353.3453674316407	809.6181640625002	-1148.897338867188	-304.5281066894532	740.2261962890626	-1146.256225585938	-258.9479370117188	753.1145629882814	-1139.565063476563	-318.9110412597657	684.6034545898439	-1129.13232421875	-269.8733825683594	534.9191894531251	-1109.374877929688	-267.4229736328126	537.6708374023439	-987.7322998046877	-259.1477661132813	364.7459106445313	-1021.359375	-283.7651672363282	313.9229431152344	-1090.216064453125	-255.9493408203126	313.7955322265626	-1051.684692382813	-281.6245117187501	240.5330200195313	-1017.764099121094	-340.8130187988282	127.34228515625	-1059.409423828125	-324.5271606445313	137.1162414550782	-974.2620239257815	-407.7444763183595	111.0867767333985	-1009.533142089844	-202.9697875976563	62.06789779663087	-985.0898437500002	-200.7734985351563	64.68508148193361	-1031.829833984375	-237.5848388671876	51.61721420288087	-1078.380981445313	-341.3125610351563	788.0418701171877	-768.3342895507815	-286.0496520996094	749.3632202148439	-765.0556030273439	-256.1104431152344	759.2330322265626	-774.9290161132815	-286.9490356445313	664.7790527343751	-771.943298339844	-263.8438110351563	559.3186035156251	-767.1314086914064	-274.6172180175782	541.2589721679689	-886.7468872070315	-228.6573486328126	427.5223083496095	-783.4966430664065	-303.7038879394532	368.1781005859376	-726.4053344726564	-263.8132019042969	355.6701049804688	-745.9595336914064	-260.6154174804688	301.7627868652344	-767.0882568359376	-336.0492553710938	154.2612915039063	-729.2200927734376	-402.0162048339845	124.6365661621094	-767.8957519531251	-202.4018096923829	80.74916839599611	-816.135437011719	-191.1599731445313	76.25521087646486	-780.894714355469	-224.8711242675782	58.7013282775879	-725.8214721679689	-325.1712341308594	158.5222778320313	-815.6336059570315	-477.6059875488282	1090.608642578125	-952.1775512695315	229.3271789550782	1433.178955078125	-1113.575927734375	
1179	5.89	-191.9472808837891	1780.267578125	-1044.5009765625	-323.4371643066407	1741.221313476563	-1121.138793945313	-368.2012023925782	1730.660766601563	-961.1453247070315	-392.8569946289064	1567.504516601563	-1041.7041015625	-452.1632385253907	1273.047119140625	-1007.183532714844	-259.6212158203126	1511.018920898438	-1033.013061523438	-291.3056030273438	1562.791259765625	-1184.908935546875	-132.91943359375	1489.818237304688	-1270.728637695313	-103.6410751342774	1501.456298828125	-1230.902221679688	-66.32968139648439	1471.001342773438	-1268.495361328125	-10.03926753997803	1459.343505859375	-1254.48974609375	-36.77790832519532	1387.91357421875	-1232.851196289063	nan	nan	nan	238.1257781982422	1457.782958984375	-1013.592956542969	-311.7191772460938	1570.536743164063	-878.677917480469	-170.5593414306641	1518.648071289063	-767.5883178710939	-136.1918487548828	1526.397216796875	-803.9817504882815	-102.6840438842774	1505.1123046875	-759.2542114257814	-41.15086364746094	1496.379516601563	-765.6340942382814	-58.68028259277345	1415.999145507813	-773.6860961914065	213.9096069335938	1453.624267578125	-876.6509399414065	nan	nan	nan	-295.8966674804688	1053.780883789063	-1080.53662109375	-309.6824951171876	1054.322021484375	-866.2270507812502	-468.263885498047	1115.915771484375	-983.5729980468752	-472.6990051269532	1082.063354492188	-1008.161010742188	-353.0429077148438	809.938415527344	-1148.674560546875	-304.4846496582032	740.3991088867189	-1145.884765625	-258.8877563476563	753.1728515625001	-1139.093139648438	-318.8752136230469	684.7446289062501	-1128.821655273438	-270.0300903320313	535.0363769531251	-1108.984375	-267.4679870605469	537.5263061523439	-987.3323364257815	-259.3423767089844	364.6882019042969	-1020.826721191406	-283.8146972656251	314.0166320800782	-1090.002685546875	-256.2013549804688	313.8218688964844	-1051.409545898438	-281.6462097167969	240.5529174804688	-1017.572631835938	-340.9625549316407	127.1851348876953	-1059.487670898438	-324.5944519042969	136.9992218017578	-974.1644287109377	-407.7109375000001	110.9835739135742	-1009.593078613281	-202.9741363525391	62.08653640747072	-985.0659179687502	-200.7824707031251	64.72632598876955	-1031.793334960938	-237.4952239990235	51.58919143676759	-1078.379028320313	-341.3934936523438	788.0396728515627	-768.172058105469	-286.2579650878907	749.4191894531251	-764.7100219726564	-256.5125732421876	759.2393798828126	-774.4187622070315	-287.2453918457032	664.5736083984376	-771.5219726562502	-264.4526367187501	559.2091674804689	-766.8767700195314	-274.8103027343751	541.3521728515626	-886.6080322265627	-229.2281188964844	427.4229431152345	-783.254577636719	-304.5485229492188	368.2016601562501	-726.3618774414064	-264.4682617187501	355.6105651855469	-745.8129272460939	-261.3222351074219	301.9302978515626	-767.1901855468751	-337.0345153808594	154.3562622070313	-729.3147583007814	-402.5701599121095	124.5594787597657	-768.5092773437502	-202.9551239013672	80.8187942504883	-816.1782226562502	-191.6525115966797	76.02562713623048	-780.9522705078127	-225.3330535888672	58.54898834228517	-726.1322631835939	-325.7277832031251	158.6098175048828	-816.0424804687502	-477.1639099121095	1090.884643554688	-951.9917602539065	228.4938964843751	1433.189697265625	-1112.42529296875	
1180	5.895	-192.2070770263672	1780.795654296875	-1043.826904296875	-323.7404785156251	1741.646362304688	-1120.606323242188	-368.6600036621094	1730.499633789063	-960.2041625976565	-392.9734497070314	1567.658813476563	-1041.132080078125	-451.9507446289064	1273.139770507813	-1006.857055664063	-259.6945800781251	1511.614868164063	-1032.381591796875	-291.5447082519532	1563.254516601563	-1184.349365234375	-132.978759765625	1490.0146484375	-1270.161865234375	-103.7030639648438	1501.73193359375	-1230.199829101563	-66.25708007812501	1471.533813476563	-1268.12158203125	-10.11738014221192	1459.59375	-1253.944702148438	-36.92979431152344	1388.218017578125	-1232.368286132813	nan	nan	nan	237.7898254394532	1457.930541992188	-1012.67724609375	-311.9673156738282	1570.695678710938	-877.7363891601565	-170.9005126953125	1518.986938476563	-767.0756225585939	-136.4844360351563	1526.113525390625	-803.0853271484377	-103.1393356323242	1505.164306640625	-758.4645385742189	-41.41309356689454	1496.4921875	-765.0952148437501	-59.08995819091798	1416.152587890625	-773.0586547851565	213.5636138916016	1454.116943359375	-876.435485839844	nan	nan	nan	-296.1936340332032	1054.402709960938	-1079.872680664063	-309.4306030273438	1054.557983398438	-865.9844970703127	-468.2561950683595	1116.519775390625	-983.3452148437502	-472.3490600585939	1082.311889648438	-1008.059020996094	-352.7093200683594	810.181091308594	-1148.302856445313	-304.3296508789063	740.5443725585939	-1145.5	-258.7858276367188	753.2734985351564	-1138.694580078125	-318.8188781738282	684.9157714843751	-1128.470581054688	-271.0076599121094	535.5877075195314	-1108.592651367188	-265.9331359863282	536.0577392578126	-987.1678466796877	-259.5563049316407	364.9160766601563	-1020.556335449219	-284.0505065917969	314.0546875000001	-1089.719848632813	-256.4303283691407	313.7574462890626	-1051.17041015625	-281.6447143554688	240.6059875488282	-1017.349975585938	-340.9784545898438	127.1827697753907	-1059.440185546875	-324.6861267089844	136.9884490966797	-974.1589965820315	-407.6964721679689	110.9763717651367	-1009.599304199219	-202.9945983886719	62.12423706054689	-985.1058349609377	-200.8252258300782	64.81417083740236	-1031.793701171875	-237.4336700439454	51.56725692749025	-1078.32080078125	-341.4471740722657	788.484069824219	-768.0459594726565	-286.4042053222657	749.2290039062501	-763.8776855468751	-256.4073791503907	759.8256835937501	-773.4883422851565	-287.7868652343751	664.6663208007814	-771.238220214844	-264.9981689453126	559.3027954101564	-766.6369628906251	-274.9903259277344	541.4448852539064	-886.466247558594	-229.8536834716797	427.3290100097657	-782.9384765625002	-305.2404785156251	368.5425415039063	-726.9696044921876	-265.5249633789063	355.6311950683594	-745.6221313476564	-262.0128784179688	302.0126037597657	-767.2708129882814	-337.7734680175782	154.2354736328125	-729.7862548828126	-403.2208862304689	124.4755859375	-769.1743774414065	-203.6142883300782	80.63587951660158	-816.315612792969	-192.2859497070313	75.76893615722658	-780.9451293945315	-226.5253906250001	58.66633605957033	-726.3452758789064	-326.2487792968751	158.7262573242188	-816.366638183594	-476.9171447753907	1090.984375	-951.8555297851565	229.0764160156251	1433.429321289063	-1111.921264648438	
1181	5.9	-192.6518707275391	1781.03271484375	-1043.139038085938	-323.5846862792969	1742.212646484375	-1120.269165039063	-368.6603088378907	1731.314697265625	-960.0425415039065	-393.1807861328126	1567.849731445313	-1040.6669921875	-451.6136779785157	1273.310668945313	-1006.576965332031	-259.8648986816407	1512.084106445313	-1031.892333984375	-291.6453552246094	1563.738159179688	-1183.775268554688	-132.9215850830078	1490.40771484375	-1269.624267578125	-103.7234573364258	1501.8701171875	-1229.751220703125	-66.4071502685547	1471.793701171875	-1267.436767578125	-10.18615436553955	1459.825073242188	-1253.385375976563	-36.91777038574219	1388.322631835938	-1231.954467773438	nan	nan	nan	237.7652435302735	1458.158935546875	-1012.138610839844	-312.3160095214844	1570.7861328125	-877.033142089844	-171.025146484375	1519.1044921875	-766.3990478515626	-136.7695922851563	1526.380004882813	-802.372497558594	-103.5536346435547	1505.314086914063	-757.8344726562501	-41.76353836059571	1496.443969726563	-764.2962646484376	-59.27864456176759	1416.289306640625	-772.5196533203127	213.1429901123047	1454.225708007813	-875.6657714843752	nan	nan	nan	-294.9064636230469	1054.48095703125	-1079.933715820313	-309.1253662109376	1054.766235351563	-865.6899414062502	-467.8786926269532	1116.745971679688	-983.1864013671877	-471.8210449218751	1082.592163085938	-1007.959594726563	-352.4207153320313	810.360046386719	-1148.036010742188	-304.1054077148438	740.6955566406251	-1145.141723632813	-258.5901184082032	753.4088134765626	-1138.314086914063	-318.8519592285157	685.1290893554689	-1128.145141601563	-271.2050781250001	535.7269287109376	-1108.281860351563	-267.9964904785157	537.1876220703126	-986.168884277344	-259.6268005371094	365.0054626464844	-1020.331359863281	-284.2275695800782	314.0830993652344	-1089.428466796875	-256.6115417480469	313.7466430664063	-1050.820678710938	-281.8692626953126	240.4312896728516	-1017.171142578125	-340.9617309570313	127.1978759765625	-1059.385498046875	-324.7885437011719	137.1036529541016	-974.1149902343752	-407.7276306152345	111.0067291259766	-1009.557006835938	-202.983627319336	62.11068725585939	-985.0367431640627	-200.8657531738282	64.81705474853517	-1031.73486328125	-237.424545288086	51.55670547485353	-1078.3271484375	-341.5878295898438	788.5901489257815	-767.7866821289064	-286.6800537109376	749.5394897460939	-764.0819091796876	-256.5460815429688	759.7652587890626	-773.0037231445315	-288.3504638671876	664.7910156250001	-770.960388183594	-265.3471374511719	559.2646484375001	-766.4558715820314	-275.0659179687501	541.5364379882814	-886.3002929687502	-230.359848022461	427.4312438964845	-782.720886230469	-305.7036437988282	367.9460144042969	-726.6813964843751	-266.0917968750001	355.6295471191407	-745.6378784179689	-262.6615905761719	301.9786376953126	-767.2601318359376	-338.5508728027344	154.3165435791016	-730.4062500000001	-403.9695434570314	124.6535568237305	-769.7078247070315	-204.1305389404297	80.53145599365236	-816.391540527344	-193.2083587646485	75.95358276367189	-780.969177246094	-227.6075592041016	58.44182586669923	-726.4083251953126	-326.9264221191407	158.7799530029297	-816.7669677734377	-476.5303039550782	1090.955810546875	-951.7473754882815	228.8915557861329	1433.737182617188	-1111.216064453125	
